<?xml version="1.0" encoding="iso-8859-1"?>
<!-- Uploaded to: SVG Repo, www.svgrepo.com, Generator: SVG Repo Mixer Tools -->
<svg fill="#000000" height="800px" width="800px" version="1.1" id="Layer_1" xmlns="http://www.w3.org/2000/svg" xmlns:xlink="http://www.w3.org/1999/xlink" 
	 viewBox="0 0 511.999 511.999" xml:space="preserve">
<g>
	<g>
		<path d="M308.844,126.725l5.988-11.975c1.794-3.588,0.799-7.571-1.775-10.019l26.81-40.215c0.006-0.009,0.012-0.017,0.017-0.026
			l0.015-0.022c0.007-0.01,0.011-0.021,0.017-0.03c0.205-0.31,0.385-0.638,0.549-0.974c0.032-0.065,0.064-0.13,0.094-0.196
			c0.157-0.344,0.296-0.698,0.407-1.066c0.009-0.028,0.014-0.057,0.022-0.086c0.095-0.328,0.167-0.664,0.223-1.007
			c0.014-0.087,0.028-0.174,0.04-0.261c0.048-0.365,0.081-0.735,0.081-1.114s-0.033-0.748-0.081-1.114
			c-0.012-0.087-0.026-0.174-0.04-0.261c-0.056-0.343-0.128-0.679-0.223-1.007c-0.008-0.029-0.013-0.057-0.022-0.086
			c-0.111-0.367-0.25-0.721-0.407-1.066c-0.03-0.066-0.062-0.13-0.094-0.196c-0.164-0.337-0.344-0.664-0.549-0.974
			c-0.006-0.01-0.011-0.021-0.017-0.03l-0.015-0.022c-0.006-0.009-0.012-0.018-0.017-0.026L305.766,3.8
			c-1.583-2.374-4.247-3.8-7.1-3.8h-85.333c-2.853,0-5.518,1.426-7.1,3.8l-34.101,51.151c-0.006,0.009-0.012,0.017-0.017,0.026
			L172.099,55c-0.007,0.01-0.011,0.021-0.017,0.03c-0.205,0.31-0.385,0.638-0.549,0.974c-0.032,0.065-0.064,0.13-0.094,0.196
			c-0.157,0.344-0.296,0.698-0.407,1.066c-0.009,0.028-0.014,0.057-0.022,0.086c-0.095,0.328-0.167,0.664-0.223,1.007
			c-0.014,0.087-0.028,0.174-0.04,0.261c-0.048,0.365-0.081,0.735-0.081,1.114s0.033,0.748,0.081,1.114
			c0.012,0.087,0.026,0.174,0.04,0.261c0.056,0.343,0.128,0.679,0.223,1.007c0.008,0.029,0.013,0.057,0.022,0.086
			c0.111,0.367,0.25,0.721,0.407,1.066c0.03,0.066,0.062,0.13,0.094,0.196c0.164,0.337,0.344,0.664,0.549,0.974
			c0.006,0.01,0.011,0.021,0.017,0.03l0.015,0.022c0.006,0.009,0.012,0.018,0.017,0.026l26.81,40.215
			c-2.574,2.448-3.569,6.431-1.775,10.019l5.988,11.975C119.34,150.076,59.733,226.817,59.733,315.732
			c0,108.393,87.874,196.267,196.267,196.267s196.267-87.874,196.267-196.267C452.266,226.82,392.654,150.076,308.844,126.725z
			 M294.699,68.267h22.155L294.099,102.4h-22.155L294.699,68.267z M255.999,95.55L237.81,68.267h36.377L255.999,95.55z M237.81,51.2
			l18.189-27.283L274.187,51.2H237.81z M217.299,68.267l22.756,34.133h-22.155l-22.756-34.133H217.299z M293.392,119.467l-25.6,51.2
			h-23.586l-1.089-2.179c-0.003-0.006-0.004-0.011-0.007-0.017l-19.934-39.868c-0.004-0.008-0.009-0.016-0.013-0.024l-4.556-9.112
			H293.392z M231.3,183.016c1.445,2.891,4.4,4.717,7.632,4.717h34.133c3.232,0,6.187-1.826,7.632-4.717l0.641-1.283
			c63.808,12.025,111.194,68.043,111.194,133.999c0,75.279-61.255,136.533-136.533,136.533s-136.533-61.255-136.533-136.533
			c0-65.956,47.385-121.973,111.192-133.999L231.3,183.016z M316.854,51.2h-22.155l-22.756-34.133h22.155L316.854,51.2z
			 M217.899,17.067h22.155L217.299,51.2h-22.155L217.899,17.067z M256,494.932c-98.967,0-179.2-80.233-179.2-179.2
			c0-82.308,55.948-153.209,134.138-173.439l11.819,23.638C153.364,181.284,102.4,243.142,102.4,315.732
			c0,84.704,68.896,153.6,153.6,153.6s153.6-68.896,153.6-153.6c0-72.591-50.965-134.449-120.358-149.802l11.819-23.638
			c78.187,20.231,134.14,91.135,134.14,173.44C435.2,414.7,354.967,494.932,256,494.932z"/>
	</g>
</g>
</svg>