<svg xmlns="http://www.w3.org/2000/svg" id="SvgjsSvg1001" version="1.1" viewBox="0 84.59 288 117.02"><defs id="SvgjsDefs1002"/><g id="SvgjsG1008"><svg xmlns="http://www.w3.org/2000/svg" fill="none" viewBox="0 0 143 59" width="288" height="288"><g clip-path="url(#a)"><path fill="#ffffff" d="M0 7.89771V23.6108L9.39604 16.3872 0 7.89771zM0 50.1381L9.39604 41.6506 0 34.4325V50.1381zM17.6191 26.8653L41.2598 7.89734H27.4806L0 29.0224 17.6191 26.8653z" class="color131118 svgShape"/><path fill="#ffffff" d="M0 29.0223L27.4806 50.1393H41.2598L17.6191 31.1677 0 29.0223zM48.6411 9.71947H53.2872V47.9814H48.6411V9.71947zM68.3187 9.71947H74.058L57.496 27.6479 74.8779 47.9814H69.1386L51.8661 27.7572 68.3187 9.71947zM83.647 22.8379V47.9814H79.2742V22.8379H83.647zM91.2447 27.6479C90.6617 27.2106 90.1333 26.9009 89.6596 26.7187 89.1858 26.5001 88.5846 26.3907 87.8558 26.3907 86.7626 26.3907 85.9062 26.6641 85.2868 27.2106 84.6673 27.7572 84.23 28.5043 83.9749 29.4517 83.7563 30.3991 83.647 31.4741 83.647 32.6766H81.6792C81.6792 30.6724 82.0254 28.9051 82.7178 27.3746 83.4465 25.8077 84.3758 24.5688 85.5054 23.6578 86.635 22.7468 87.7829 22.2913 88.949 22.2913 89.86 22.2913 90.6981 22.4188 91.4633 22.6739 92.265 22.8925 92.9938 23.348 93.6497 24.0404L91.2447 27.6479zM98.0101 12.4525C98.0101 11.6143 98.3017 10.9038 98.8847 10.3207 99.5042 9.73769 100.215 9.44617 101.016 9.44617 101.855 9.44617 102.565 9.73769 103.148 10.3207 103.731 10.9038 104.023 11.6143 104.023 12.4525 104.023 13.2541 103.731 13.9647 103.148 14.5842 102.565 15.1672 101.855 15.4588 101.016 15.4588 100.215 15.4588 99.5042 15.1672 98.8847 14.5842 98.3017 13.9647 98.0101 13.2541 98.0101 12.4525zM98.83 22.8379H103.203V47.9814H98.83V22.8379zM113.247 40.2744C113.758 41.0396 114.341 41.7502 114.997 42.4061 115.652 43.062 116.4 43.5904 117.238 43.9913 118.112 44.3557 119.06 44.5379 120.08 44.5379 121.319 44.5379 122.285 44.2646 122.977 43.718 123.706 43.1349 124.07 42.3515 124.07 41.3676 124.07 40.493 123.779 39.7642 123.196 39.1812 122.649 38.5617 121.938 38.0515 121.064 37.6507 120.189 37.2134 119.26 36.8126 118.276 36.4482 117.183 36.0109 116.072 35.5007 114.942 34.9177 113.849 34.2982 112.919 33.5148 112.154 32.5673 111.425 31.5834 111.061 30.3627 111.061 28.9051 111.061 27.4111 111.444 26.1721 112.209 25.1882 113.011 24.2044 114.031 23.4756 115.27 23.0018 116.545 22.5281 117.857 22.2913 119.205 22.2913 120.554 22.2913 121.811 22.5099 122.977 22.9472 124.179 23.3845 125.236 23.9675 126.147 24.6963 127.058 25.4251 127.769 26.2632 128.279 27.2106L124.781 29.4517C124.088 28.5043 123.214 27.7208 122.157 27.1013 121.137 26.4818 119.971 26.1721 118.659 26.1721 117.748 26.1721 116.964 26.3725 116.308 26.7734 115.652 27.1742 115.325 27.7937 115.325 28.6318 115.325 29.2877 115.58 29.8708 116.09 30.3809 116.6 30.8911 117.256 31.3466 118.058 31.7474 118.859 32.1483 119.697 32.5309 120.572 32.8953 122.029 33.4783 123.36 34.116 124.562 34.8084 125.765 35.4643 126.712 36.266 127.404 37.2134 128.133 38.1609 128.498 39.3816 128.498 40.8756 128.498 43.062 127.696 44.884 126.093 46.3416 124.526 47.7992 122.449 48.528 119.861 48.528 118.185 48.528 116.673 48.2365 115.325 47.6535 113.976 47.034 112.828 46.2505 111.881 45.3031 110.97 44.3557 110.278 43.39 109.804 42.4061L113.247 40.2744zM130.428 22.8379H143V26.9374H130.428V22.8379zM134.528 14.0923H138.9V47.9814H134.528V14.0923z" class="color131118 svgShape"/></g><defs><clipPath id="a"><rect width="143" height="58.103" fill="#ffffff" class="colorfff svgShape"/></clipPath></defs></svg></g></svg>